<svg xmlns="http://www.w3.org/2000/svg" xmlns:xlink="http://www.w3.org/1999/xlink" version="1.1" x="0px" y="0px" viewBox="0 0 100 100" enable-background="new 0 0 100 100" xml:space="preserve" width="100"  height="100" ><path d="M50,5C25.1,5,5,25.1,5,50c0,24.9,20.1,45,45,45c24.8,0,45-20.1,45-45C95,25.1,74.8,5,50,5L50,5z M71.1,48.6  c-1.9,1.9-4.8,1.9-6.7,0c-0.2-0.1-9.7-9.7-9.7-9.7v33.6c0,2.6-2.1,4.7-4.7,4.7c-2.6,0-4.8-2.1-4.8-4.7V38.9c0,0-9.3,9.3-9.7,9.7  c-1.9,1.9-4.9,1.9-6.7,0s-1.9-4.8,0-6.7c0.4-0.4,17.8-17.8,17.8-17.8c1.9-1.9,4.8-1.9,6.7,0c0,0,17.7,17.7,17.8,17.8  C73,43.8,73,46.7,71.1,48.6z"/></svg>